{"title":"Evening[x264][AC3(5.1)].mkv","uid":5267445,"size":894695060,"categoryP":"video","categoryS":"movies","magnet":"?xt=urn:btih:0df7074cf65d05235884d107725fb8e6f501f2c7&amp;dn=Evening%5Bx264%5D%5BAC3%285.1%29%5D.mkv&amp;tr=udp%3A%2F%2Ftracker.openbittorrent.com%3A80&amp;tr=udp%3A%2F%2Fopen.demonii.com%3A1337&amp;tr=udp%3A%2F%2Ftracker.coppersurfer.tk%3A6969&amp;tr=udp%3A%2F%2Fexodus.desync.com%3A6969","seeders":0,"leechers":1,"uploader":"Zen_Bud","files":-1,"time":1262940769,"description":"General\nComplete name                    : Evening.mkv\nFormat                           : Matroska\nFile size                        : 853 MiB\nDuration                         : 1h 57mn\nOverall bit rate                 : 1 019 Kbps\n\n\nVideo\nID                               : 1\nFormat                           : AVC\nDuration                         : 1h 56mn\nBit rate                         : 551 Kbps\nWidth                            : 718 pixels\nHeight                           : 356 pixels\nDisplay aspect ratio             : 2.35:1\nOriginal display aspect ratio    : 2.35:1\nFrame rate                       : 23.976 fps\nResolution                       : 8 bits\nColorimetry                      : 4:2:0\nScan type                        : Progressive\nBits/(Pixel*Frame)               : 0.090\nStream size                      : 461 MiB (54%)\nWriting library                  : x264 core 79\n\nAudio\nID                               : 2\nFormat                           : AC-3\nFormat/Info                      : Audio Coding 3\nCodec ID                         : A_AC3\nDuration                         : 1h 57mn\nBit rate mode                    : Constant\nBit rate                         : 448 Kbps\nChannel(s)                       : 6 channels\nChannel positions                : Front: L C R, Surround: L R, LFE\nSampling rate                    : 48.0 KHz\nStream size                      : 375 MiB (44%)\nLanguage                         : English\n\nText #1\nLanguage                         : English\n\nText #2\nLanguage                         : Swedish\n\n","torrent":{"xt":"urn:btih:0df7074cf65d05235884d107725fb8e6f501f2c7","amp;dn":"Evening%5Bx264%5D%5BAC3%285.1%29%5D.mkv","amp;tr":["udp%3A%2F%2Ftracker.openbittorrent.com%3A80","udp%3A%2F%2Fopen.demonii.com%3A1337","udp%3A%2F%2Ftracker.coppersurfer.tk%3A6969","udp%3A%2F%2Fexodus.desync.com%3A6969"],"infoHash":"0df7074cf65d05235884d107725fb8e6f501f2c7","infoHashBuffer":{"type":"Buffer","data":[13,247,7,76,246,93,5,35,88,132,209,7,114,95,184,230,245,1,242,199]},"announce":[],"urlList":[]}}